<?xml version="1.0" encoding="utf-8"?>
<!-- Generator: Adobe Illustrator 16.2.0, SVG Export Plug-In . SVG Version: 6.00 Build 0)  -->
<!DOCTYPE svg PUBLIC "-//W3C//DTD SVG 1.1//EN" "http://www.w3.org/Graphics/SVG/1.1/DTD/svg11.dtd">
<svg version="1.1" id="Layer_1" xmlns="http://www.w3.org/2000/svg" xmlns:xlink="http://www.w3.org/1999/xlink" x="0px" y="0px"
	 width="58.5px" height="63.5px" viewBox="0 0 58.5 63.5" enable-background="new 0 0 58.5 63.5" xml:space="preserve">
<g id="XMLID_228_">
	<path id="XMLID_229_" fill="#FFFFFF" d="M9.879,24.179c-4.181,7.255-1.523,18.265,3.1,24.941c2.308,3.337,4.645,6.333,7.845,6.333
		c0.06,0,0.121-0.001,0.183-0.003c1.503-0.06,2.59-0.523,3.641-0.97c1.179-0.503,2.399-1.022,4.313-1.022
		c1.82,0,2.982,0.503,4.105,0.989c1.107,0.479,2.248,0.975,3.933,0.943c3.604-0.067,5.818-3.3,7.771-6.152
		c2.038-2.978,3.06-5.869,3.405-6.974l0.014-0.044c0.066-0.196-0.027-0.411-0.215-0.497c-0.005-0.002-0.024-0.011-0.029-0.013
		c-0.635-0.26-6.203-2.73-6.262-9.463c-0.054-5.47,4.177-8.366,5.026-8.892l0.04-0.024c0.092-0.06,0.156-0.153,0.178-0.261
		c0.021-0.107-0.001-0.219-0.063-0.309c-2.921-4.274-7.398-4.918-9.2-4.996c-0.262-0.026-0.531-0.039-0.803-0.039
		c-2.117,0-4.145,0.799-5.774,1.442c-1.125,0.443-2.096,0.826-2.766,0.826c-0.753,0-1.73-0.388-2.861-0.836
		c-1.513-0.601-3.228-1.281-5.042-1.281c-0.043,0-0.086,0-0.128,0.001C16.066,17.941,12.078,20.355,9.879,24.179z"/>
	<path id="XMLID_230_" fill="#FFFFFF" d="M37.665,6c-2.556,0.104-5.622,1.677-7.455,3.824c-1.557,1.804-3.079,4.813-2.678,7.844
		c0.025,0.19,0.18,0.336,0.37,0.351c0.173,0.013,0.349,0.02,0.524,0.021c2.499,0,5.195-1.383,7.036-3.609
		c1.938-2.351,2.917-5.368,2.621-8.07C38.061,6.149,37.875,5.992,37.665,6z"/>
</g>
</svg>
