<?xml version="1.0" encoding="utf-8"?>
<!-- Generator: Adobe Illustrator 16.2.0, SVG Export Plug-In . SVG Version: 6.00 Build 0)  -->
<!DOCTYPE svg PUBLIC "-//W3C//DTD SVG 1.1//EN" "http://www.w3.org/Graphics/SVG/1.1/DTD/svg11.dtd">
<svg version="1.1" id="Capa_1" xmlns="http://www.w3.org/2000/svg" xmlns:xlink="http://www.w3.org/1999/xlink" x="0px" y="0px"
	 width="35.81px" height="34.81px" viewBox="0 0 35.81 34.81" enable-background="new 0 0 35.81 34.81" xml:space="preserve">
<g>
	<path fill="#FF7600" d="M20.339,17.068c-0.788-0.424-1.667,0.394-2.182,0.879c-1.182,1.151-2.182,2.485-3.303,3.697
		c-1.243,1.333-2.394,2.667-3.667,3.97c-0.728,0.728-1.515,1.516-2,2.425c-1.091-1.061-2.031-2.212-3.243-3.152
		c-0.879-0.666-2.333-1.151-2.303,0.455c0.061,2.091,1.909,4.333,3.273,5.758c0.576,0.606,1.333,1.243,2.212,1.273
		c1.061,0.061,2.152-1.212,2.789-1.909c1.121-1.212,2.03-2.576,3.061-3.818c1.333-1.637,2.697-3.243,4-4.91
		C19.793,20.704,22.37,18.159,20.339,17.068z M4.974,25.22c-0.031,0-0.061,0-0.122,0.03c-0.121-0.03-0.212-0.061-0.333-0.121l0,0
		C4.61,25.068,4.762,25.099,4.974,25.22z"/>
</g>
</svg>
