<?xml version="1.0" encoding="utf-8"?>
<!-- Generator: Adobe Illustrator 16.2.0, SVG Export Plug-In . SVG Version: 6.00 Build 0)  -->
<!DOCTYPE svg PUBLIC "-//W3C//DTD SVG 1.1//EN" "http://www.w3.org/Graphics/SVG/1.1/DTD/svg11.dtd">
<svg version="1.1" id="Слой_1" xmlns="http://www.w3.org/2000/svg" xmlns:xlink="http://www.w3.org/1999/xlink" x="0px" y="0px"
	 width="63.873px" height="73.496px" viewBox="0 0 63.873 73.496" enable-background="new 0 0 63.873 73.496" xml:space="preserve">
<path fill="#070707" d="M20.575,6.241c0,0,4.543,0.992,1.157,11.812c-3.387,10.82-9.417,21.228-7.847,28.579
	c1.336,6.26,6.199,5.955,7.517,5.369c0.743-0.331-1.735,0.083-4.13-3.139c-1.016-1.366-2.561-3.056-0.166-12.142l6.855-19.576
	C23.961,17.144,27.348,6.406,20.575,6.241z"/>
<path fill="#FF7600" d="M33.212,30.112l-1.239,3.799c0,0-10.986,13.133-13.051,14.373c-0.413,0.248-1.239-3.552-0.991-4.213"/>
<path fill="#070707" d="M36.021,22.926c-0.235,0.201-0.456,0.391-0.669,0.574c-0.021-0.229-0.074-0.326-0.074-0.326
	S44.198,5.25,25.613,6.158c-1.038,0.051-0.856-0.023-0.247,0.097c-0.095-0.007-0.191-0.012-0.29-0.015c0,0,4.006,0.248,0.62,11.068
	c-2.476,7.912-6.078,15.999-7.222,22.649l0.366-0.347c0,0,1.046-0.894,2.593-2.215l2.704-2.308c3.628-3.096,8.052-6.865,9.603-8.161
	c0.661-0.653,1.101-1.16,1.207-1.44c0,0,0.427-0.578,0.994-1.088c0.535-0.62,1.166-0.934,1.73-0.777
	c1.015,0.281,1.432,1.972,0.932,3.776c-0.002,0.007-0.004,0.014-0.006,0.021c-0.394,2.276-1.833,5.977-4.642,14.423
	c-2.891,8.693-5.245,5.596-5.059,3.428c0.084-0.99,0.186-3.098,1.011-4.915c0.028-0.06,0.054-0.181,0.054-0.181
	s-1.844,2.449-2.609,3.561c-1.363,1.985-2.706,3.984-4.041,5.988c-0.237,0.356-0.507,0.707-0.717,1.079
	c-0.562,0.997,2.001,1.214,2.66,1.284c1.123,0.121,2.595,0.225,3.662-0.25c0.129-0.058,0.068-0.087-0.129-0.115
	c-0.393-0.385-1.495-1.784-0.531-4.676c0,0,0.743,5.287,6.525,5.121c5.782-0.165,12.721-5.782,15.033-17.593
	C52.128,22.761,45.85,14.501,36.021,22.926z"/>
<text transform="matrix(1 0 0 1 12.2944 65.5264)" font-family="'Raleway-ExtraLight'" font-size="8.9207">BELLOM</text>
</svg>
