<?xml version="1.0" encoding="utf-8"?>
<!-- Generator: Adobe Illustrator 16.2.0, SVG Export Plug-In . SVG Version: 6.00 Build 0)  -->
<!DOCTYPE svg PUBLIC "-//W3C//DTD SVG 1.1//EN" "http://www.w3.org/Graphics/SVG/1.1/DTD/svg11.dtd">
<svg version="1.1" id="Слой_1" xmlns="http://www.w3.org/2000/svg" xmlns:xlink="http://www.w3.org/1999/xlink" x="0px" y="0px"
	 width="197.438px" height="73.496px" viewBox="0 0 197.438 73.496" enable-background="new 0 0 197.438 73.496"
	 xml:space="preserve">
<path fill="#282828" d="M22.338,16.302c0,0,3.806,0.83,0.969,9.896c-2.837,9.064-7.889,17.784-6.574,23.942
	c1.12,5.245,5.193,4.99,6.297,4.499c0.623-0.277-1.453,0.068-3.46-2.63c-0.851-1.146-2.145-2.56-0.138-10.173l5.744-16.4
	C25.175,25.437,28.012,16.441,22.338,16.302z"/>
<path fill="#FF7600" d="M32.925,36.302l-1.038,3.183c0,0-9.204,11.003-10.934,12.041c-0.347,0.206-1.039-2.977-0.831-3.53"/>
<path fill="#282828" d="M35.278,30.28c-0.197,0.169-0.382,0.328-0.56,0.481c-0.018-0.191-0.063-0.273-0.063-0.273
	s7.475-15.017-8.096-14.256c-0.869,0.042-0.718-0.019-0.208,0.081c-0.079-0.005-0.16-0.01-0.243-0.012c0,0,3.356,0.208,0.519,9.273
	c-2.074,6.628-5.091,13.402-6.05,18.976l0.307-0.291c0,0,0.876-0.75,2.172-1.856l2.266-1.933c3.04-2.595,6.746-5.751,8.045-6.839
	c0.554-0.546,0.922-0.972,1.011-1.206c0,0,0.357-0.484,0.833-0.911c0.448-0.52,0.977-0.782,1.45-0.651
	c0.85,0.236,1.2,1.652,0.781,3.163c-0.001,0.005-0.003,0.011-0.005,0.019c-0.33,1.906-1.535,5.008-3.888,12.083
	c-2.422,7.284-4.395,4.688-4.239,2.871c0.071-0.829,0.156-2.594,0.848-4.116c0.022-0.052,0.044-0.153,0.044-0.153
	s-1.545,2.052-2.185,2.984c-1.142,1.663-2.267,3.338-3.385,5.018c-0.199,0.297-0.426,0.59-0.601,0.903
	c-0.471,0.835,1.676,1.017,2.228,1.075c0.941,0.102,2.174,0.188,3.069-0.209c0.108-0.048,0.057-0.074-0.108-0.096
	c-0.33-0.323-1.253-1.494-0.446-3.918c0,0,0.623,4.429,5.467,4.29c4.844-0.138,10.657-4.844,12.595-14.739
	S43.513,23.222,35.278,30.28z"/>
<text transform="matrix(1 0 0 1 57.4548 44.9189)" fill="#282828" font-family="'Raleway-Regular'" font-size="24.1547">BELLOM</text>
</svg>
