<?xml version="1.0" encoding="utf-8"?>
<!-- Generator: Adobe Illustrator 16.2.0, SVG Export Plug-In . SVG Version: 6.00 Build 0)  -->
<!DOCTYPE svg PUBLIC "-//W3C//DTD SVG 1.1//EN" "http://www.w3.org/Graphics/SVG/1.1/DTD/svg11.dtd">
<svg version="1.1" id="Capa_1" xmlns="http://www.w3.org/2000/svg" xmlns:xlink="http://www.w3.org/1999/xlink" x="0px" y="0px"
	 width="65.5px" height="64.5px" viewBox="0 0 65.5 64.5" enable-background="new 0 0 65.5 64.5" xml:space="preserve">
<path fill="#FFFFFF" d="M49.949,28.227L19.387,10.757c-0.743-0.425-1.588-0.649-2.443-0.649c-0.867,0-1.721,0.229-2.471,0.665
	c-1.513,0.877-2.452,2.509-2.452,4.259V49.97c0,1.749,0.939,3.381,2.452,4.258c0.75,0.436,1.604,0.665,2.471,0.665
	c0.855,0,1.7-0.224,2.443-0.649l30.562-17.47c1.53-0.875,2.48-2.512,2.48-4.274C52.428,30.739,51.479,29.102,49.949,28.227z
	 M36.705,24.096l-4.196,5.845L22.471,15.959L36.705,24.096z M22.471,49.042l10.038-13.981l4.196,5.845L22.471,49.042z
	 M48.467,34.183l-9.156,5.233l-4.964-6.915l4.964-6.916l9.156,5.233c0.602,0.345,0.976,0.988,0.976,1.682
	C49.443,33.194,49.069,33.838,48.467,34.183z"/>
</svg>
