<?xml version="1.0" encoding="utf-8"?>
<!-- Generator: Adobe Illustrator 16.2.0, SVG Export Plug-In . SVG Version: 6.00 Build 0)  -->
<!DOCTYPE svg PUBLIC "-//W3C//DTD SVG 1.1//EN" "http://www.w3.org/Graphics/SVG/1.1/DTD/svg11.dtd">
<svg version="1.1" id="Layer_1" xmlns="http://www.w3.org/2000/svg" xmlns:xlink="http://www.w3.org/1999/xlink" x="0px" y="0px"
	 width="300px" height="300px" viewBox="0 0 300 300" enable-background="new 0 0 300 300" xml:space="preserve">
<circle fill="#FF7600" cx="151.151" cy="151.151" r="148.849"/>
<g>
	<g>
		<path fill="#FFFFFF" d="M197.937,154.334h-0.101c2.149-2.818,4.036-6.601,3.962-11.148c-0.102-6.148-3.776-12.163-10.923-17.878
			c0.893-2.683,1.083-5.329,0.559-7.921c-2.078-10.268-13.221-14.369-23.446-16.648c0.364-1.207,0.562-2.485,0.562-3.81
			c0-5.011-2.797-9.38-6.911-11.631c4.093-8.311,9.551-9.23,11.746-9.23c2.797,0,4.556,0.599,5.573,1.139
			c0.792,0.42,1.751,0.353,2.464-0.189c1.329-1.01,1.157-3.05-0.315-3.834c-1.639-0.872-4.128-1.683-7.722-1.683
			c-4.379,0-8.486,2.015-11.877,5.826c-1.142,1.284-2.792,3.447-4.232,6.503c-0.644-0.097-1.303-0.147-1.973-0.147
			c-4.968,0-9.304,2.75-11.571,6.807c-0.83-0.917-1.746-2.117-2.392-3.474c-0.271-0.571-0.768-1.003-1.371-1.195
			c-0.603-0.191-1.258-0.125-1.809,0.185c-6.828,3.83-11.813,8.934-14.819,15.167c-2.569,5.332-3.044,10.244-3.053,13.1
			c-0.193,0.075-0.384,0.15-0.563,0.227c-5.912,2.534-9.321,7.357-9.859,13.949c-0.215,2.635,0.083,5.04,0.4,6.689
			c-4.705,1.686-7.977,4.909-9.156,9.133c-0.932,3.334-0.451,6.95,1.199,10.065h-1.822c-0.695,0-1.352,0.315-1.786,0.859
			c-0.433,0.542-0.596,1.253-0.442,1.931l11.319,49.806c0.745,3.279,3.615,5.57,6.979,5.57h65.31c3.363,0,6.233-2.291,6.979-5.57
			l11.319-49.806c0.153-0.678-0.009-1.389-0.442-1.931C199.289,154.649,198.632,154.334,197.937,154.334z M155.302,88.25
			c4.786,0,8.679,3.893,8.679,8.679c0,4.786-3.893,8.679-8.679,8.679s-8.679-3.894-8.679-8.679
			C146.623,92.143,150.516,88.25,155.302,88.25z M116.556,207.932c-1.216,0-2.254-0.828-2.524-2.015l-10.686-47.016h7.393
			l8.166,47.905c0.066,0.39,0.16,0.765,0.273,1.125H116.556z M124.72,207.932c-0.415,0-1.102-0.657-1.312-1.893l-8.035-47.138h7.436
			l5.43,47.779c0.049,0.436,0.122,0.854,0.215,1.251H124.72z M133.296,207.932c-0.159-0.259-0.412-0.822-0.519-1.767l-5.371-47.264
			h7.465l2.708,47.651c0.028,0.489,0.07,0.949,0.127,1.379H133.296z M146.927,207.932h-4.592c-0.078-0.392-0.155-0.932-0.195-1.638
			l-2.693-47.393h7.321c0.003,0,0.006,0.001,0.008,0.001c0.004,0,0.008-0.001,0.012-0.001h0.139V207.932L146.927,207.932z
			 M156.282,206.294c-0.04,0.706-0.117,1.247-0.195,1.638h-4.592v-49.03h7.48L156.282,206.294z M165.126,207.932h-4.41
			c0.057-0.43,0.099-0.889,0.127-1.379l2.707-47.651h7.466l-5.371,47.264C165.538,207.109,165.285,207.673,165.126,207.932z
			 M173.702,207.932h-3.734c0.094-0.397,0.166-0.815,0.216-1.251l5.43-47.779h7.436l-8.035,47.138
			C174.804,207.274,174.117,207.932,173.702,207.932z M184.39,205.917c-0.27,1.187-1.308,2.015-2.524,2.015h-2.621
			c0.113-0.36,0.206-0.735,0.272-1.125l8.166-47.905h4.841c0.002,0,0.004,0,0.006,0c0.003,0,0.005,0,0.007,0h2.539L184.39,205.917z
			 M191.662,154.334h-35.021c5.136-2.684,11.788-6.443,18.056-10.842c1.032-0.724,1.282-2.148,0.558-3.181
			c-0.724-1.033-2.148-1.282-3.182-0.558c-10.879,7.633-23.336,13.46-25.79,14.581h-38.419c-2.27-2.451-3.194-5.834-2.355-8.838
			c0.95-3.4,4.016-5.78,8.635-6.705c4.338-0.868,15.81-3.283,28.606-6.962c1.212-0.349,1.912-1.614,1.563-2.827
			s-1.613-1.913-2.826-1.564c-11.406,3.28-21.744,5.542-26.796,6.581c-0.698-3.759-1.16-11.898,6.833-15.324
			c3.085-1.322,9.336-2.46,15.954-3.665l2.211-0.404c1.241-0.228,2.062-1.418,1.834-2.659c-0.228-1.241-1.418-2.062-2.659-1.834
			l-2.205,0.402c-4.273,0.778-8.398,1.53-11.765,2.353c0.311-5.322,2.565-14.722,13.562-21.742c0.826,1.232,1.712,2.248,2.417,2.975
			c0.492,0.507,0.912,0.905,1.279,1.224c-0.063,0.52-0.098,1.046-0.098,1.583c0,7.305,5.943,13.248,13.248,13.248
			c4.292,0,8.112-2.054,10.535-5.229c4.505,0.958,8.232,2.066,11.242,3.361c0.571,0.864,0.493,1.485,0.335,1.981
			c-0.567,1.777-4.105,6.666-24.658,13.64c-1.194,0.405-1.834,1.703-1.43,2.896c0.323,0.952,1.211,1.551,2.163,1.551
			c0.244,0,0.491-0.04,0.734-0.122c7.367-2.5,13.343-4.997,17.763-7.42c5.594-3.067,8.792-6.063,9.78-9.157
			c0.072-0.228,0.131-0.456,0.18-0.684c2.809,2.04,4.432,4.444,5.011,7.299c0.84,4.151-1.047,8.734-5.608,13.622
			c-0.86,0.922-0.811,2.367,0.112,3.228c0.44,0.411,0.999,0.614,1.558,0.614c0.61,0,1.22-0.244,1.67-0.726
			c1.706-1.828,3.102-3.648,4.188-5.455c5.47,4.591,8.28,9.191,8.354,13.684C197.313,148.246,194.021,152.169,191.662,154.334z"/>
	</g>
</g>
</svg>
