<?xml version="1.0" encoding="utf-8"?>
<!-- Generator: Adobe Illustrator 16.2.0, SVG Export Plug-In . SVG Version: 6.00 Build 0)  -->
<!DOCTYPE svg PUBLIC "-//W3C//DTD SVG 1.1//EN" "http://www.w3.org/Graphics/SVG/1.1/DTD/svg11.dtd">
<svg version="1.1" id="Capa_1" xmlns="http://www.w3.org/2000/svg" xmlns:xlink="http://www.w3.org/1999/xlink" x="0px" y="0px"
	 width="300px" height="300px" viewBox="0 0 300 300" enable-background="new 0 0 300 300" xml:space="preserve">
<circle fill="#FF7600" cx="151.151" cy="151.151" r="148.849"/>
<g>
	<path fill="#FFFFFF" d="M170.672,137.628c0.253,0.086,0.511,0.126,0.764,0.126c0.99,0,1.915-0.623,2.249-1.613
		c0.743-2.181,3.122-3.353,5.304-2.614c4.661,1.578,9.748-0.924,11.327-5.588c0.423-1.24-0.241-2.592-1.484-3.015
		c-1.247-0.42-2.592,0.245-3.015,1.487c-0.742,2.183-3.12,3.354-5.304,2.614c-4.654-1.571-9.745,0.926-11.327,5.588
		C168.765,135.853,169.43,137.205,170.672,137.628z"/>
	<path fill="#FFFFFF" d="M176.293,121.073c0.252,0.085,0.512,0.125,0.764,0.125c0.99,0,1.914-0.623,2.249-1.613
		c0.358-1.058,1.107-1.913,2.11-2.407c1.002-0.494,2.136-0.565,3.193-0.207c4.661,1.578,9.746-0.924,11.328-5.59
		c0.422-1.24-0.245-2.592-1.485-3.015c-1.242-0.428-2.593,0.245-3.013,1.487c-0.741,2.186-3.115,3.357-5.303,2.616
		c-2.262-0.768-4.683-0.61-6.82,0.446c-2.14,1.055-3.741,2.882-4.508,5.142C174.383,119.301,175.052,120.65,176.293,121.073z"/>
	<path fill="#FFFFFF" d="M181.91,104.518c0.255,0.085,0.511,0.125,0.765,0.125c0.99,0,1.916-0.622,2.251-1.613
		c0.546-1.611,2.306-2.478,3.914-1.932c1.984,0.672,4.11,0.535,5.99-0.39c1.877-0.926,3.281-2.528,3.955-4.512
		c0.423-1.24-0.242-2.592-1.483-3.015c-1.248-0.425-2.593,0.245-3.017,1.487c-0.266,0.781-0.819,1.414-1.558,1.777
		c-0.739,0.363-1.575,0.418-2.359,0.149c-4.091-1.38-8.556,0.815-9.943,4.904C180.005,102.746,180.668,104.095,181.91,104.518z"/>
	<path fill="#FFFFFF" d="M199.121,137.452c-0.414-0.283-0.879-0.444-1.355-0.506c4.722-15.341,7.311-30.371,7.683-44.685
		c0.115-4.502-2.084-10.513-6.52-13.295c-2.129-1.338-5.616-2.44-10.145-0.109c-7.098,3.661-12.173,14.431-16.249,23.089
		c-0.235,0.499-0.466,0.986-0.693,1.468c-0.901-4.141-3.638-7.684-7.529-9.532c-0.918-4.41-4.415-7.864-8.811-8.76
		c-0.047-0.247-0.106-0.489-0.18-0.733c-0.906-3.094-3.635-5.422-6.793-5.797c-1.779-0.211-3.542,0.157-5.049,1.038
		c-1.283-0.715-2.723-1.095-4.2-1.095c-4.132,0-7.603,2.881-8.508,6.738c-4.517,1.23-7.829,5.376-7.864,10.194
		c-5.153,1.33-8.907,5.987-8.907,11.526c0,1.468,0.276,2.922,0.805,4.292c-1.337,1.651-2.079,3.718-2.079,5.888
		c0,1.302,0.268,2.557,0.774,3.716c-2.374-2.59-5.714-4.707-9.465-4.568c-1.312,0.042-2.343,1.138-2.303,2.449
		c0.041,1.285,1.096,2.302,2.374,2.302c0.081,0.002,0.154-0.005,0.23-0.005c2.227,0,4.296,1.473,5.802,3.184
		c-3.769,1.085-8.311,2.854-10.43,6.85c-1.276,2.411-1.425,5.37-0.575,8.757c-0.411,0.687-0.637,1.485-0.594,2.335l4.043,57.465
		c0.369,7.206,6.308,12.849,13.521,12.849h66.693c7.213,0,13.152-5.643,13.519-12.807l4.146-59.462c0-0.014,0.002-0.029,0.002-0.043
		C200.532,139.099,200.025,138.075,199.121,137.452z M173.78,110.208c0.939-1.756,1.967-3.932,3.053-6.239
		c3.571-7.583,8.465-17.969,14.127-20.891c2.067-1.064,3.846-1.086,5.443-0.091c2.753,1.73,4.373,6.094,4.295,9.149
		c-0.363,14.046-2.93,28.829-7.629,43.939c-0.153,0.497-0.496,1.499-0.983,2.875l-4.048,1.799c-0.089,0.041-0.174,0.083-0.257,0.135
		c-1.17,0.701-2.481,1.048-3.793,1.062c-1.311-0.014-2.62-0.361-3.788-1.062l-1.694-1.017c-1.949-1.168-4.132-1.753-6.315-1.753
		c-0.026,0-0.052,0.005-0.081,0.005c-2.21-0.014-4.424,0.563-6.396,1.748l-1.691,1.017c-0.942,0.565-1.986,0.841-3.042,0.96
		c0.06-0.207,0.129-0.409,0.19-0.613c0.651-2.212,1.35-4.393,2.082-6.557c0.277-0.822,0.567-1.64,0.857-2.454
		c0.609-1.718,1.25-3.415,1.91-5.099c0.294-0.752,0.582-1.513,0.886-2.259C168.978,119.809,171.264,114.907,173.78,110.208z
		 M143.493,115.843c0.278-0.356,0.548-0.703,0.805-1.04c0-0.005,0.002-0.007,0.004-0.01c0.188-0.25,0.352-0.509,0.49-0.767
		c0.584-1.1,0.722-2.336,0.451-3.543l9.917-2.169c0.066,0.304,0.138,0.606,0.253,0.887c0.443,1.088,1.236,1.993,2.342,2.625
		c0.361,0.2,0.739,0.4,1.128,0.606c0.321,0.169,0.642,0.345,0.965,0.521c0.154,0.083,0.312,0.167,0.466,0.252
		c0.283,0.159,0.556,0.334,0.831,0.508c0.236,0.145,0.469,0.294,0.697,0.454c0.264,0.183,0.515,0.385,0.767,0.589
		c0.222,0.181,0.433,0.378,0.643,0.58c0.225,0.221,0.448,0.447,0.655,0.694c0.365,0.437,0.718,0.891,1.004,1.435
		c-1.006,2.224-1.955,4.493-2.871,6.781c-0.144,0.354-0.295,0.699-0.436,1.052c-2.604,0.661-5.12,1.896-8.228,4.108
		c-3.916,2.782-6.831,3.521-11.635,2.825l-1.442-6.603C139.32,121.163,141.442,118.459,143.493,115.843z M155.274,101.415
		c0.062-0.012,0.123-0.019,0.186-0.019c0.449,0,0.868,0.321,0.966,0.772c0.077,0.342-0.052,0.611-0.138,0.742
		c-0.082,0.128-0.271,0.354-0.609,0.428l-13.125,2.873c-0.523,0.114-1.055-0.233-1.169-0.751c-0.114-0.521,0.23-1.055,0.751-1.169
		l6.973-1.526L155.274,101.415z M147.595,138.163c-0.18,0.012-0.363,0.017-0.544,0.036c-1.294,0.13-2.573,0.458-3.787,1.005
		l-0.454-2.079c0.684,0.057,1.366,0.114,2.005,0.114c4.143,0,7.479-1.233,11.313-3.96c1.207-0.86,2.277-1.511,3.294-2.05
		c-0.219,0.62-0.435,1.238-0.646,1.86c-0.151,0.447-0.315,0.886-0.463,1.335c-0.698,2.115-1.363,4.246-1.985,6.396l-1.579-0.946
		c-1.948-1.169-4.132-1.753-6.315-1.753c-0.028,0-0.059,0.004-0.088,0.004C148.094,138.12,147.845,138.148,147.595,138.163z
		 M119.178,113.594l1.556-1.283l-1.009-1.742c-0.632-1.093-0.967-2.328-0.967-3.578c0-3.849,3.015-6.988,6.864-7.149l2.884-0.121
		l-0.672-2.808c-0.114-0.471-0.171-0.934-0.171-1.374c0-3.06,2.39-5.638,5.44-5.871l2.195-0.166v-2.365
		c0.069-2.136,1.83-3.854,3.984-3.854c1.241,0,2.129,0.566,2.654,1.041l1.666,1.504l1.596-1.578c0.731-0.723,1.737-1.06,2.772-0.941
		c1.274,0.15,2.424,1.143,2.795,2.419c0.125,0.428,0.16,0.841,0.111,1.261l-0.278,2.654h2.675c3.414,0,6.271,2.668,6.506,6.075
		l0.106,1.561l1.476,0.518c3.713,1.304,6.156,4.818,6.072,8.75c-0.035,1.679-0.576,3.297-1.559,4.715
		c-1.589-1.349-3.302-2.259-4.742-3.017c-0.372-0.197-0.733-0.388-1.098-0.589c-0.102-0.057-0.227-0.156-0.269-0.406
		c-0.056-0.342,0.072-0.752,0.33-1.055c1.036-1.202,1.452-2.841,1.118-4.389l-0.288-1.309c-0.288-1.32-1.076-2.449-2.217-3.181
		c-1.139-0.729-2.492-0.974-3.811-0.684l-0.638,0.14c-0.007,0.002-0.014,0-0.021,0.002l-6.974,1.525l-6.804,1.485
		c-1.318,0.288-2.447,1.074-3.179,2.217c-0.732,1.138-0.974,2.495-0.687,3.813l0.143,0.646c0,0.001,0,0.004,0,0.007
		s0.002,0.004,0.002,0.009l0.14,0.644c0.345,1.583,1.445,2.915,2.939,3.557c0.371,0.159,0.68,0.461,0.787,0.767
		c0.062,0.176,0.025,0.267-0.112,0.494c0,0,0,0,0,0.003c-0.235,0.315-0.49,0.637-0.749,0.967c-0.261,0.333-0.532,0.682-0.808,1.042
		c-0.093,0.122-0.18,0.247-0.273,0.371c-0.197,0.268-0.395,0.542-0.589,0.827c-0.107,0.155-0.209,0.313-0.313,0.475
		c-0.181,0.278-0.354,0.565-0.526,0.86c-0.1,0.171-0.197,0.34-0.292,0.518c-0.178,0.333-0.339,0.682-0.499,1.038
		c-0.069,0.152-0.142,0.297-0.204,0.456c-0.209,0.518-0.394,1.06-0.542,1.63c-0.023,0.09-0.033,0.188-0.055,0.28
		c-0.114,0.485-0.206,0.986-0.266,1.509c-0.023,0.209-0.029,0.427-0.043,0.644c-0.019,0.281-0.055,0.547-0.055,0.839
		c-0.01-0.012-0.019-0.024-0.028-0.035c-0.034-0.043-0.067-0.082-0.098-0.124c-0.414-0.544-0.827-1.045-1.243-1.521
		c-0.13-0.15-0.264-0.295-0.396-0.438c-0.35-0.377-0.699-0.731-1.051-1.064c-0.114-0.107-0.228-0.224-0.345-0.328
		c-0.444-0.397-0.891-0.761-1.34-1.084c-0.125-0.09-0.254-0.167-0.38-0.251c-0.337-0.226-0.675-0.435-1.017-0.621
		c-0.166-0.09-0.33-0.178-0.499-0.258c-0.354-0.174-0.71-0.321-1.069-0.449c-0.119-0.043-0.238-0.1-0.356-0.138
		c-0.39-0.124-0.782-0.224-1.176-0.297c-0.045-0.009-0.09-0.005-0.135-0.012c-0.081-0.014-0.159-0.045-0.24-0.057
		c-0.275-0.04-0.537-0.023-0.808-0.042c-0.189-0.012-0.377-0.053-0.568-0.053c-0.057,0-0.116,0.014-0.176,0.014
		c-0.368,0.005-0.724,0.048-1.083,0.093c-0.178,0.024-0.356,0.038-0.535,0.071c-0.468,0.085-0.922,0.205-1.371,0.347
		c-0.069,0.021-0.135,0.038-0.204,0.062c-1.183,0.402-2.305,0.969-3.355,1.656c-0.216-0.534-0.33-1.109-0.33-1.701
		C117.484,115.782,118.102,114.478,119.178,113.594z M103.913,133.321c1.005-1.894,3.445-3.338,7.682-4.55
		c1.981-0.565,3.82-1.623,5.313-3.048c0.677-0.648,1.312-1.198,1.925-1.696c1.914-1.556,3.565-2.402,5.06-2.595
		c0.033-0.005,0.066-0.009,0.1-0.012c0.473-0.053,0.932-0.038,1.375,0.04c0.117,0.021,0.235,0.062,0.354,0.093
		c0.221,0.054,0.439,0.109,0.66,0.197c0.143,0.055,0.285,0.138,0.43,0.204c0.207,0.1,0.411,0.19,0.618,0.316
		c0.162,0.097,0.323,0.223,0.485,0.335c0.192,0.135,0.385,0.259,0.58,0.416c0.181,0.145,0.361,0.321,0.542,0.485
		c0.181,0.164,0.361,0.313,0.542,0.497c0.199,0.202,0.401,0.437,0.604,0.663c0.164,0.183,0.328,0.351,0.494,0.548
		c0.226,0.271,0.454,0.58,0.682,0.879c0.145,0.19,0.288,0.361,0.433,0.563c0.259,0.361,0.521,0.763,0.781,1.162
		c0.114,0.176,0.231,0.333,0.344,0.513c0.378,0.597,0.758,1.231,1.141,1.906c1.749,3.086,2.329,7.646,1.568,11.615
		c-0.126-0.011-0.25-0.031-0.375-0.05c-0.905-0.154-1.777-0.444-2.571-0.919l-1.693-1.017c-1.949-1.169-4.132-1.753-6.316-1.753
		c-0.025,0-0.052,0.005-0.081,0.005c-2.209-0.014-4.424,0.563-6.396,1.749l-0.825,0.494c-1.438,0.862-3.048,1.297-4.659,1.311
		c-1.614-0.014-3.222-0.446-4.66-1.311l-3.195-1.92c0,0-0.002,0-0.002-0.002c-0.42-0.249-0.875-0.42-1.34-0.506
		C103.138,136.053,103.271,134.532,103.913,133.321z M191.585,199.413c-0.24,4.675-4.097,8.339-8.777,8.339h-66.694
		c-4.683,0-8.537-3.664-8.779-8.385l-3.953-56.17l2.067,1.24c2.241,1.344,4.756,2.005,7.265,1.991
		c2.511,0.015,5.025-0.646,7.266-1.991l0.825-0.494c1.168-0.704,2.478-1.05,3.79-1.064c1.311,0.014,2.621,0.361,3.792,1.064
		l1.694,1.017c2.143,1.286,4.571,1.836,6.971,1.705c0.214-0.009,0.427-0.009,0.644-0.028c0.026-0.001,0.05-0.017,0.079-0.019
		c1.623-0.184,3.214-0.693,4.683-1.53c0.137-0.05,0.285-0.052,0.413-0.128l1.694-1.017c1.169-0.704,2.478-1.05,3.79-1.064
		c1.311,0.014,2.621,0.361,3.792,1.064l1.693,1.017c1.799,1.076,3.8,1.634,5.813,1.718c0.04,0.002,0.083,0.007,0.123,0.007
		c0.693,0.021,1.388,0,2.077-0.098c0.395-0.05,0.777-0.149,1.163-0.237c0.188-0.044,0.376-0.086,0.561-0.14
		c1.055-0.292,2.089-0.675,3.052-1.252l0,0l1.693-1.017c1.17-0.704,2.479-1.05,3.79-1.064c1.312,0.014,2.621,0.361,3.792,1.064
		l1.693,1.017c1.963,1.176,4.165,1.753,6.365,1.744c0.035,0,0.074,0.008,0.108,0.008c2.135,0,4.271-0.557,6.185-1.673l4.662-2.072
		c0.1-0.045,0.172-0.131,0.264-0.188l0.364-0.162L191.585,199.413z"/>
	<path fill="#FFFFFF" d="M112.794,179.671h16.631c1.312,0,2.375-1.062,2.375-2.375c0-1.314-1.064-2.377-2.375-2.377h-16.631
		c-1.312,0-2.376,1.063-2.376,2.377C110.418,178.609,111.482,179.671,112.794,179.671z"/>
	<path fill="#FFFFFF" d="M112.794,189.175h21.383c1.311,0,2.375-1.062,2.375-2.376c0-1.313-1.064-2.376-2.375-2.376h-21.383
		c-1.312,0-2.376,1.063-2.376,2.376C110.418,188.113,111.482,189.175,112.794,189.175z"/>
	<path fill="#FFFFFF" d="M138.929,193.927h-26.135c-1.312,0-2.376,1.062-2.376,2.375s1.064,2.376,2.376,2.376h26.135
		c1.311,0,2.375-1.063,2.375-2.376S140.24,193.927,138.929,193.927z"/>
	<path fill="#FFFFFF" d="M153.183,193.927h-4.751c-1.312,0-2.376,1.062-2.376,2.375s1.064,2.376,2.376,2.376h4.751
		c1.312,0,2.377-1.063,2.377-2.376S154.494,193.927,153.183,193.927z"/>
</g>
</svg>
