<?xml version="1.0" encoding="utf-8"?>
<!-- Generator: Adobe Illustrator 16.2.0, SVG Export Plug-In . SVG Version: 6.00 Build 0)  -->
<!DOCTYPE svg PUBLIC "-//W3C//DTD SVG 1.1//EN" "http://www.w3.org/Graphics/SVG/1.1/DTD/svg11.dtd">
<svg version="1.1" id="Layer_1" xmlns="http://www.w3.org/2000/svg" xmlns:xlink="http://www.w3.org/1999/xlink" x="0px" y="0px"
	 width="300px" height="300px" viewBox="0 0 300 300" enable-background="new 0 0 300 300" xml:space="preserve">
<circle fill="#FF7600" cx="151.151" cy="151.151" r="148.849"/>
<g>
	<g>
		<path fill="#FFFFFF" d="M125.258,100.701c-3.335-4.448-7.838-6.897-12.679-6.897s-9.344,2.45-12.679,6.896
			c-3.173,4.23-4.919,9.814-4.919,15.724s1.747,11.494,4.919,15.724c1.855,2.474,4.072,4.327,6.507,5.486l-3.724,55.985
			c-0.182,2.729,0.786,5.438,2.654,7.435c1.869,1.997,4.508,3.142,7.243,3.142c2.734,0,5.373-1.145,7.24-3.14
			c1.868-1.997,2.835-4.707,2.653-7.436l-3.723-55.985c2.435-1.16,4.652-3.013,6.508-5.487c3.172-4.23,4.919-9.814,4.919-15.724
			C130.177,110.515,128.431,104.93,125.258,100.701z M116.122,197.597c-0.927,0.99-2.186,1.536-3.542,1.536
			c-1.358,0-2.617-0.546-3.545-1.537c-0.927-0.992-1.389-2.284-1.299-3.639l3.655-54.967c0.394,0.033,0.789,0.056,1.188,0.056
			c0.398,0,0.793-0.023,1.187-0.056l3.655,54.967C117.511,195.313,117.05,196.605,116.122,197.597z M112.579,133.981
			c-0.907,0-1.792-0.139-2.645-0.396c-0.071-0.026-0.142-0.05-0.215-0.07c-5.538-1.818-9.675-8.788-9.675-17.091
			c0-9.681,5.624-17.557,12.535-17.557s12.535,7.876,12.535,17.557C125.114,126.105,119.49,133.981,112.579,133.981z"/>
	</g>
</g>
<g>
	<g>
		<path fill="#FFFFFF" d="M205.021,159.764v-63.11l-0.021,0.009c0.073-0.558-0.038-1.143-0.356-1.659
			c-0.735-1.189-2.296-1.558-3.485-0.822c-10.329,6.386-16.497,17.447-16.498,29.588c0,0.001-0.001,0.003-0.001,0.005v33.157
			c0,2.909,2.325,5.279,5.212,5.367v34.287c0,4.177,3.397,7.575,7.575,7.575c4.177,0,7.575-3.398,7.575-7.575v-36.81
			C205.021,159.771,205.021,159.768,205.021,159.764z M190.033,157.243c-0.172,0-0.311-0.139-0.311-0.311v-33.153
			c0-0.001,0-0.002,0-0.003c0-8.759,3.754-16.858,10.233-22.454v55.92H190.033z M199.957,196.586c0,1.385-1.127,2.512-2.512,2.512
			c-1.386,0-2.513-1.127-2.513-2.512v-34.278h5.024V196.586L199.957,196.586z"/>
	</g>
</g>
<g>
	<g>
		<path fill="#FFFFFF" d="M166.559,93.804c-1.398,0-2.532,1.134-2.532,2.532v28.763h-6.45V96.336c0-1.398-1.134-2.532-2.532-2.532
			s-2.532,1.134-2.532,2.532v28.763h-6.451V96.336c0-1.398-1.133-2.532-2.532-2.532c-1.398,0-2.532,1.134-2.532,2.532v36.65
			c0,4.127,3.357,7.485,7.485,7.485h0.45l-3.552,53.396c-0.178,2.663,0.766,5.31,2.59,7.26c1.825,1.951,4.403,3.069,7.074,3.069
			c2.67,0,5.248-1.118,7.073-3.069c1.824-1.949,2.769-4.596,2.59-7.259l-3.553-53.397h0.451c4.128,0,7.485-3.358,7.485-7.485V96.335
			C169.091,94.938,167.957,93.804,166.559,93.804z M158.418,197.668c-0.883,0.944-2.082,1.465-3.375,1.465s-2.491-0.521-3.375-1.465
			c-0.883-0.944-1.322-2.174-1.236-3.464l3.575-53.733h2.073l3.574,53.734C159.741,195.494,159.302,196.724,158.418,197.668z
			 M164.026,132.986c0,1.335-1.086,2.421-2.421,2.421h-10.052c-0.003,0-0.007,0-0.01,0h-3.062c-1.335,0-2.421-1.086-2.421-2.421
			v-2.824h17.965V132.986z"/>
	</g>
</g>
</svg>
