<?xml version="1.0" encoding="utf-8"?>
<!-- Generator: Adobe Illustrator 16.2.0, SVG Export Plug-In . SVG Version: 6.00 Build 0)  -->
<!DOCTYPE svg PUBLIC "-//W3C//DTD SVG 1.1//EN" "http://www.w3.org/Graphics/SVG/1.1/DTD/svg11.dtd">
<svg version="1.1" id="Capa_1" xmlns="http://www.w3.org/2000/svg" xmlns:xlink="http://www.w3.org/1999/xlink" x="0px" y="0px"
	 width="302.223px" height="298px" viewBox="1 -246.778 302.223 298" enable-background="new 1 -246.778 302.223 298"
	 xml:space="preserve">
<circle fill="#FF7600" cx="152.151" cy="-97.626" r="148.849"/>
<g>
	<g>
		<path fill="#FFFFFF" d="M135.896-108.667c8.941,0,16.217-9.762,16.217-21.765c0-12-7.275-21.765-16.217-21.765
			c-8.942,0-16.218,9.764-16.218,21.765C119.678-118.429,126.952-108.667,135.896-108.667z M135.896-146.903
			c5.919,0,10.924,7.544,10.924,16.471c0,8.928-5.001,16.471-10.924,16.471s-10.924-7.542-10.924-16.471
			C124.972-139.358,129.973-146.903,135.896-146.903z"/>
		<path fill="#FFFFFF" d="M183.996-87.499c-0.333-0.451-0.653-0.879-0.822-1.248c-3.624-7.76-13.569-16.912-29.67-17.14
			l-0.618-0.003c-15.855,0-25.722,8.668-29.668,16.781c-0.136,0.276-0.436,0.638-0.755,1.017c-0.373,0.448-0.746,0.905-1.064,1.399
			c-3.336,5.19-5.035,11.029-4.784,16.443c0.264,5.752,2.668,10.371,6.768,13.003c1.652,1.065,3.441,1.601,5.313,1.601
			c3.867,0,7.405-2.176,11.503-4.701c2.605-1.601,5.299-3.262,8.291-4.502c0.338-0.11,1.707-0.278,3.954-0.278
			c2.673,0,4.588,0.236,5,0.381c2.917,1.286,5.481,2.978,7.963,4.61c3.802,2.502,7.391,4.868,11.285,4.868
			c1.672,0,3.295-0.438,4.82-1.31c8.432-4.791,10.038-17.932,3.583-29.299C184.769-86.442,184.38-86.975,183.996-87.499z
			 M178.894-61.177c-0.744,0.42-1.443,0.619-2.205,0.619c-2.31,0-5.118-1.851-8.375-3.997c-2.539-1.669-5.411-3.563-8.734-5.032
			c-1.633-0.724-5.176-0.832-7.139-0.832c-2.875,0-4.87,0.226-5.934,0.662c-3.428,1.425-6.433,3.271-9.085,4.902
			c-3.414,2.097-6.36,3.917-8.729,3.917c-0.865,0-1.642-0.243-2.45-0.763c-2.617-1.682-4.158-4.806-4.343-8.794
			c-0.2-4.324,1.203-9.063,3.948-13.336c0.2-0.312,0.441-0.59,0.677-0.869c0.483-0.578,1.034-1.236,1.451-2.096
			c3.247-6.672,11.496-13.8,24.908-13.8l0.543,0.003c13.651,0.193,21.972,7.71,24.947,14.086c0.396,0.845,0.912,1.544,1.363,2.158
			c0.259,0.352,0.53,0.707,0.751,1.092C185.504-74.433,184.788-64.528,178.894-61.177z"/>
		<path fill="#FFFFFF" d="M170.375-108.667c8.943,0,16.218-9.762,16.218-21.765c0-12-7.272-21.765-16.218-21.765
			c-8.94,0-16.216,9.764-16.216,21.765C154.159-118.429,161.432-108.667,170.375-108.667z M170.375-146.903
			c5.919,0,10.924,7.544,10.924,16.471c0,8.928-5.001,16.471-10.924,16.471c-5.921,0-10.922-7.542-10.922-16.471
			C159.453-139.358,164.454-146.903,170.375-146.903z"/>
		<path fill="#FFFFFF" d="M197.01-119.844c-7.165,0-12.778,7.436-12.778,16.924c0,9.485,5.614,16.919,12.778,16.919
			c7.165,0,12.776-7.434,12.776-16.919C209.786-112.408,204.177-119.844,197.01-119.844z M197.01-91.295
			c-4.057,0-7.484-5.326-7.484-11.625c0-6.304,3.428-11.63,7.484-11.63s7.482,5.326,7.482,11.63
			C204.492-96.621,201.064-91.295,197.01-91.295z"/>
		<path fill="#FFFFFF" d="M123.385-102.92c0-9.488-5.615-16.924-12.778-16.924c-7.164,0-12.778,7.436-12.778,16.924
			c0,9.485,5.614,16.919,12.778,16.919C117.77-86.001,123.385-93.435,123.385-102.92z M110.607-91.295
			c-4.057,0-7.484-5.326-7.484-11.625c0-6.304,3.428-11.63,7.484-11.63s7.484,5.326,7.484,11.63
			C118.092-96.621,114.664-91.295,110.607-91.295z"/>
	</g>
</g>
</svg>
