<?xml version="1.0" encoding="utf-8"?>
<!-- Generator: Adobe Illustrator 16.2.0, SVG Export Plug-In . SVG Version: 6.00 Build 0)  -->
<!DOCTYPE svg PUBLIC "-//W3C//DTD SVG 1.1//EN" "http://www.w3.org/Graphics/SVG/1.1/DTD/svg11.dtd">
<svg version="1.1" id="Capa_1" xmlns="http://www.w3.org/2000/svg" xmlns:xlink="http://www.w3.org/1999/xlink" x="0px" y="0px"
	 width="300px" height="300px" viewBox="0 0 300 300" enable-background="new 0 0 300 300" xml:space="preserve">
<circle fill="#FF7600" cx="151.15" cy="151.151" r="148.849"/>
<g>
	<path fill="#FFFEFD" d="M125.556,172.234c-0.436-1.216-1.775-1.849-2.991-1.413c-1.216,0.437-1.849,1.775-1.413,2.992
		c0.451,1.258,0.68,2.581,0.68,3.933c0,6.423-5.225,11.648-11.648,11.648s-11.648-5.225-11.648-11.648
		c0-6.423,5.225-11.647,11.647-11.647c1.291,0,2.557,0.208,3.764,0.621c1.223,0.417,2.552-0.236,2.969-1.459
		c0.417-1.223-0.235-2.552-1.458-2.969c-1.695-0.579-3.469-0.872-5.275-0.872c-9.002,0-16.326,7.324-16.326,16.326
		c0,9.003,7.324,16.327,16.326,16.327s16.327-7.324,16.327-16.327C126.511,175.855,126.189,174.001,125.556,172.234z"/>
	<path fill="#FFFEFD" d="M215.493,198.592c-0.101-6.327-5.278-11.443-11.628-11.443h-2.505v-77.216
		c0-10.319-8.395-18.714-18.715-18.714h-23.49v-2.309c0-1.292-1.047-2.339-2.339-2.339h-16.27
		c-12.899,0-23.394,10.494-23.394,23.394v30.436h-16.407c-5.16,0-9.357,4.197-9.357,9.357v10.417c0,0.028,0.003,0.057,0.004,0.086
		c-4.273,4.589-6.893,10.737-6.893,17.487c0,14.163,11.522,25.685,25.684,25.685c3.855,0,7.514-0.855,10.799-2.384
		c0.027,0.001,0.053,0.004,0.08,0.004h49.79c5.159,0,9.356-4.197,9.356-9.357v-19.802c0-17.365-14.127-31.493-31.493-31.493h-17.527
		v-30.436c0-5.16,4.198-9.357,9.357-9.357h16.27c1.292,0,2.339-1.047,2.339-2.339v-2.37h23.491c7.739,0,14.036,6.296,14.036,14.036
		v77.216h-2.406c-6.413,0-11.63,5.217-11.63,11.63c0,1.292,1.048,2.339,2.339,2.339h28.17c0.002,0,0.005,0,0.006,0
		c1.292,0,2.339-1.047,2.339-2.339C215.5,198.715,215.497,198.653,215.493,198.592z M89.179,177.746
		c0-11.581,9.423-21.005,21.005-21.005c11.583,0,21.005,9.424,21.005,21.005c0,11.582-9.423,21.006-21.005,21.006
		C98.602,198.752,89.179,189.328,89.179,177.746z M175.531,171.892v15.257h-4.476c-1.292,0-2.34,1.048-2.34,2.34
		c0,1.291,1.048,2.339,2.34,2.339h4.469c-0.072,2.518-2.138,4.545-4.672,4.545h-43.002c1.435-1.361,2.711-2.887,3.802-4.545h29.899
		c1.292,0,2.339-1.048,2.339-2.339c0-1.292-1.047-2.34-2.339-2.34h-27.466c1.15-2.913,1.782-6.085,1.782-9.402
		c0-14.162-11.522-25.684-25.684-25.684c-5.211,0-10.063,1.562-14.117,4.239v-6.546c0-2.58,2.099-4.679,4.679-4.679h47.971
		C163.502,145.077,175.531,157.106,175.531,171.892z M126.511,109.963v30.436h-4.679v-30.436c0-10.319,8.395-18.715,18.715-18.715
		h13.931v4.679h-13.931C132.807,95.927,126.511,102.223,126.511,109.963z M187.729,196.438c0.963-2.686,3.534-4.611,6.546-4.611
		h9.59c3.013,0,5.583,1.926,6.546,4.611H187.729z"/>
</g>
</svg>
