<?xml version="1.0" encoding="iso-8859-1"?>
<!-- Generator: Adobe Illustrator 19.0.0, SVG Export Plug-In . SVG Version: 6.00 Build 0)  -->
<svg version="1.1" id="Layer_1" xmlns="http://www.w3.org/2000/svg" xmlns:xlink="http://www.w3.org/1999/xlink" x="0px" y="0px"
	 viewBox="0 0 512.001 512.001" style="enable-background:new 0 0 512.001 512.001;" xml:space="preserve">
<g>
	<g>
		<g>
			<path d="M355.547,67.531c-16.376,0-29.699,13.324-29.699,29.699c0,16.376,13.323,29.698,29.699,29.698
				c16.376,0,29.699-13.322,29.699-29.698C385.245,80.854,371.922,67.531,355.547,67.531z M355.547,110.759
				c-7.46,0-13.529-6.069-13.529-13.53c0-7.461,6.068-13.53,13.529-13.53c7.461,0,13.531,6.068,13.531,13.53
				C369.077,104.69,363.008,110.759,355.547,110.759z"/>
			<path d="M429.511,73.016h-15.508l10.965-10.966c4.393-4.393,6.814-10.236,6.814-16.451c0-6.215-2.421-12.057-6.816-16.455
				l-1.338-1.337c-4.394-4.394-10.238-6.815-16.452-6.815c-6.213,0-12.057,2.419-16.45,6.813L379.76,38.771V23.266
				C379.76,10.437,369.323,0,356.494,0h-1.896c-12.829,0-23.265,10.437-23.265,23.266v15.505l-10.965-10.964
				c-4.393-4.394-10.236-6.814-16.451-6.814c-6.215,0-12.058,2.42-16.453,6.813l-1.339,1.341
				c-4.395,4.394-6.816,10.238-6.816,16.452c0,6.215,2.42,12.057,6.814,16.451l10.966,10.966h-15.508
				c-12.829,0-23.266,10.436-23.266,23.265v1.895c0,12.829,10.437,23.266,23.266,23.266h15.508l-10.966,10.965
				c-4.393,4.395-6.814,10.238-6.814,16.453c0.001,6.213,2.422,12.056,6.813,16.445l1.342,1.344
				c4.394,4.394,10.237,6.815,16.452,6.815c6.214,0,12.058-2.42,16.451-6.814l10.966-10.966v15.51
				c0,12.829,10.436,23.264,23.265,23.264h1.896c12.829,0,23.266-10.435,23.266-23.264v-15.51l10.966,10.967
				c4.393,4.393,10.237,6.813,16.452,6.813c6.212,0,12.056-2.419,16.453-6.815l1.338-1.339c4.393-4.394,6.813-10.237,6.813-16.451
				c0.002-6.215-2.419-12.057-6.813-16.453l-10.966-10.965h15.508c12.829,0,23.265-10.437,23.265-23.266v-1.895
				C452.776,83.452,442.34,73.016,429.511,73.016z M436.608,98.176L436.608,98.176c-0.001,3.914-3.184,7.098-7.098,7.098h-35.026
				c-3.269,0-6.218,1.97-7.468,4.991c-1.252,3.021-0.561,6.498,1.752,8.811l24.767,24.766c2.767,2.766,2.766,7.268-0.003,10.039
				l-1.338,1.338c-1.34,1.341-3.122,2.079-5.018,2.079c-1.897,0-3.68-0.738-5.018-2.078l-24.766-24.767
				c-2.313-2.314-5.791-3.007-8.811-1.753c-3.02,1.25-4.99,4.198-4.99,7.468v35.027c0,3.913-3.183,7.097-7.098,7.097h-1.896
				c-3.914,0-7.097-3.184-7.097-7.097v-35.027c0-3.269-1.97-6.218-4.991-7.468c-0.999-0.415-2.051-0.616-3.091-0.616
				c-2.104,0-4.172,0.82-5.718,2.368l-24.767,24.765c-1.341,1.34-3.124,2.08-5.018,2.08c-1.895,0-3.678-0.74-5.016-2.077
				l-1.342-1.345c-1.341-1.339-2.078-3.121-2.079-5.017c0-1.895,0.737-3.677,2.079-5.017l24.766-24.766
				c2.312-2.313,3.003-5.789,1.752-8.811c-1.25-3.021-4.199-4.991-7.469-4.991h-35.025c-3.915,0-7.098-3.184-7.098-7.098v-1.894
				c0-3.914,3.183-7.098,7.098-7.098h35.025c3.269,0,6.219-1.97,7.469-4.991c1.251-3.02,0.56-6.497-1.752-8.81l-24.766-24.767
				c-1.341-1.341-2.078-3.122-2.078-5.018c0-1.896,0.738-3.679,2.08-5.019l1.338-1.339c1.342-1.342,3.125-2.08,5.02-2.08
				s3.677,0.738,5.018,2.08l24.766,24.765c2.312,2.312,5.787,3.003,8.81,1.751c3.021-1.25,4.991-4.198,4.991-7.468V23.266
				c0-3.915,3.183-7.099,7.097-7.099h1.896c3.915,0,7.098,3.184,7.098,7.099v35.023c0,3.269,1.97,6.218,4.99,7.468
				c3.02,1.252,6.498,0.561,8.811-1.751l24.766-24.766c1.339-1.342,3.121-2.08,5.017-2.08c1.896,0,3.679,0.739,5.021,2.083
				l1.338,1.336c1.34,1.342,2.079,3.124,2.079,5.02c0,1.895-0.739,3.677-2.079,5.018l-24.766,24.767
				c-2.312,2.312-3.003,5.788-1.751,8.809c1.25,3.021,4.198,4.991,7.468,4.991h35.024c3.914,0,7.097,3.184,7.097,7.098V98.176z"/>
			<path d="M156.455,187.47c16.375,0,29.698-13.322,29.698-29.698c0-16.375-13.323-29.699-29.698-29.699
				c-16.376,0-29.699,13.324-29.699,29.699C126.756,174.148,140.079,187.47,156.455,187.47z M156.455,144.242
				c7.46,0,13.53,6.069,13.53,13.53c0,7.461-6.069,13.53-13.53,13.53s-13.531-6.068-13.531-13.53
				C142.924,150.312,148.994,144.242,156.455,144.242z"/>
			<path d="M155.507,255.003h1.896c12.828,0,23.266-10.437,23.266-23.266v-15.51l10.965,10.966
				c4.394,4.394,10.237,6.816,16.451,6.816c6.214,0,12.057-2.422,16.451-6.815l1.34-1.34c4.394-4.394,6.815-10.236,6.815-16.451
				c0-6.215-2.42-12.057-6.814-16.451l-10.965-10.967h15.508c12.828,0,23.265-10.437,23.265-23.265v-1.896
				c0-12.829-10.437-23.265-23.265-23.265h-15.508l10.966-10.966c9.069-9.07,9.069-23.83-0.003-32.905l-1.339-1.337
				c-4.395-4.395-10.238-6.815-16.452-6.815s-12.057,2.421-16.45,6.815l-10.965,10.965V83.809c0-12.829-10.437-23.266-23.266-23.266
				h-1.896c-12.829,0-23.266,10.437-23.266,23.266v15.505l-10.965-10.965c-4.394-4.394-10.236-6.814-16.451-6.814
				s-12.059,2.421-16.449,6.812l-1.344,1.344c-4.393,4.393-6.814,10.236-6.814,16.451s2.42,12.057,6.814,16.45l10.965,10.967H82.49
				c-12.828,0-23.265,10.436-23.265,23.265v1.896c0,12.828,10.437,23.265,23.265,23.265h15.508l-10.966,10.966
				c-4.394,4.394-6.814,10.237-6.814,16.453c0,6.214,2.421,12.056,6.813,16.448l1.343,1.343c4.394,4.394,10.237,6.814,16.451,6.814
				c6.215,0,12.057-2.419,16.45-6.814l10.966-10.966v15.508C132.241,244.566,142.678,255.003,155.507,255.003z M109.842,215.763
				c-1.339,1.34-3.122,2.078-5.017,2.078c-1.896,0-3.679-0.738-5.017-2.076l-1.342-1.343c-2.767-2.769-2.767-7.271-0.001-10.037
				l24.768-24.766c2.313-2.313,3.003-5.789,1.753-8.811c-1.251-3.02-4.199-4.99-7.469-4.99H82.49c-3.913,0-7.097-3.184-7.097-7.098
				v-1.896c0-3.913,3.183-7.098,7.097-7.098h35.025c3.27,0,6.217-1.97,7.469-4.991c1.25-3.02,0.56-6.497-1.753-8.81l-24.767-24.766
				c-1.34-1.341-2.078-3.123-2.078-5.018c0-1.896,0.738-3.679,2.075-5.016l1.345-1.343c1.34-1.342,3.123-2.081,5.018-2.081
				c1.896,0,3.678,0.738,5.018,2.079l24.765,24.766c2.313,2.314,5.79,3.005,8.81,1.753c3.021-1.251,4.991-4.198,4.991-7.468V83.809
				c0-3.915,3.183-7.098,7.098-7.098h1.896c3.914,0,7.098,3.183,7.098,7.098v35.025c0,3.269,1.97,6.218,4.99,7.468
				c3.023,1.253,6.499,0.561,8.81-1.752l24.767-24.766c1.34-1.341,3.122-2.079,5.017-2.079s3.679,0.738,5.022,2.082l1.338,1.337
				c2.768,2.767,2.768,7.271,0.002,10.037l-24.767,24.765c-2.312,2.313-3.003,5.789-1.753,8.81c1.252,3.021,4.199,4.991,7.469,4.991
				h35.025c3.914,0,7.097,3.185,7.097,7.098v1.896c0,3.914-3.183,7.098-7.097,7.098h-35.025c-3.27,0-6.217,1.97-7.469,4.99
				c-1.25,3.021-0.56,6.498,1.753,8.811l24.765,24.765c1.34,1.341,2.079,3.123,2.079,5.019c0,1.895-0.739,3.677-2.079,5.016
				l-1.341,1.343c-1.341,1.34-3.122,2.079-5.018,2.079c-1.895,0-3.678-0.739-5.018-2.08l-24.766-24.765
				c-2.312-2.313-5.788-3.003-8.81-1.753c-3.02,1.25-4.99,4.198-4.99,7.468v35.026c0,3.914-3.184,7.098-7.098,7.098h-1.896
				c-3.915,0-7.098-3.184-7.098-7.098v-35.026c0-3.269-1.969-6.218-4.991-7.468c-1-0.415-2.051-0.616-3.092-0.616
				c-2.105,0-4.171,0.82-5.719,2.368L109.842,215.763z"/>
			<path d="M340.738,368.574h-55.245c0.663-13.562,1.712-26.562,3.08-38.966c4.611,1.555,9.465,2.38,14.339,2.38
				c0.001,0,0.001,0,0.001,0c8.347,0,16.514-2.348,23.62-6.79c13.463-8.419,21.489-23.522,20.946-39.416
				c-0.1-2.893-1.737-5.513-4.293-6.868c-6.443-3.415-13.701-5.219-20.991-5.219c-8.347,0-16.514,2.349-23.62,6.79
				c-1.013,0.634-1.986,1.317-2.936,2.025c7.499-39.221,17.659-70.412,26.557-92.836c1.647-4.149-0.384-8.849-4.534-10.497
				c-4.146-1.643-8.849,0.384-10.496,4.534c-5.258,13.251-10.942,29.471-16.292,48.494c-6.968-8.933-17.651-14.197-29.109-14.197
				c-0.781,0-1.569,0.026-2.348,0.074c-2.888,0.185-5.458,1.898-6.738,4.493c-5.813,11.793-4.9,25.902,2.383,36.824
				c5.879,8.816,15.163,14.572,25.493,16.041c-5.41,27.264-9.587,58.393-11.245,93.133h-42.954
				c-0.308-5.094-0.686-10.168-1.137-15.221c0.244-56.697,18.564-92.365,18.75-92.723c2.076-3.945,0.566-8.828-3.377-10.91
				c-3.949-2.088-8.839-0.578-10.925,3.369c-0.507,0.958-7.797,15.018-13.57,39.361c-3.417-16.027-7.597-31.737-12.541-47.057
				c-1.37-4.248-5.921-6.58-10.177-5.211c-4.249,1.369-6.582,5.927-5.211,10.176c3.149,9.761,5.98,19.686,8.491,29.757
				c-6.956-4.189-14.877-6.418-22.977-6.418c-7.29,0-14.548,1.804-20.99,5.219c-2.556,1.355-4.194,3.976-4.293,6.868
				c-0.544,15.894,7.482,30.998,20.945,39.416c7.106,4.442,15.273,6.79,23.62,6.79c4.512,0,9.011-0.695,13.313-2.032
				c1.111,7.962,2.035,15.99,2.769,24.078c-0.001,0.406-0.01,0.802-0.009,1.209c0.002,0.771,0.118,1.512,0.322,2.217
				c0.31,3.692,0.57,7.398,0.8,11.113h-53.74c-11.591,0-21.019,9.43-21.019,21.019v5.39c0,11.59,9.429,21.019,21.019,21.019h1.143
				l15.5,89.297c0.673,3.874,4.035,6.702,7.965,6.702H316.13c3.931,0,7.293-2.828,7.964-6.702l15.5-89.297h1.144
				c11.59,0,21.018-9.43,21.018-21.019v-5.39C361.756,378.003,352.326,368.574,340.738,368.574z M307.143,294.195
				c4.533-2.833,9.738-4.331,15.05-4.331c3.007,0,6.006,0.48,8.862,1.408c-1.165,8.258-5.919,15.729-13.096,20.217
				c-4.531,2.834-9.735,4.33-15.047,4.33c-3.008,0-6.007-0.479-8.862-1.407C295.214,306.154,299.969,298.682,307.143,294.195z
				 M192.961,315.819c-5.312,0-10.517-1.496-15.047-4.33c-7.178-4.487-11.932-11.96-13.096-20.217
				c2.855-0.928,5.854-1.408,8.862-1.408c5.312,0,10.516,1.498,15.048,4.331c7.177,4.487,11.931,11.96,13.096,20.217
				C198.968,315.34,195.969,315.819,192.961,315.819z M268.512,250.43c-3.144-4.714-4.174-10.486-3.001-15.915
				c5.488,0.998,10.381,4.165,13.533,8.891c3.142,4.712,4.172,10.485,3,15.914C276.555,258.321,271.661,255.154,268.512,250.43z
				 M345.588,394.983c0,2.675-2.177,4.851-4.85,4.851h-36.769c-4.465,0-8.084,3.619-8.084,8.084c0,4.465,3.619,8.085,8.084,8.085
				h19.215l-13.857,79.831h-121.5l-13.857-79.831h100.894c4.465,0,8.084-3.62,8.084-8.085c0-4.465-3.619-8.084-8.084-8.084H156.418
				c-2.675,0-4.851-2.176-4.851-4.851v-5.39c0-2.675,2.176-4.851,4.851-4.851h184.32c2.674,0,4.85,2.177,4.85,4.851V394.983z"/>
		</g>
	</g>
</g>
<g>
</g>
<g>
</g>
<g>
</g>
<g>
</g>
<g>
</g>
<g>
</g>
<g>
</g>
<g>
</g>
<g>
</g>
<g>
</g>
<g>
</g>
<g>
</g>
<g>
</g>
<g>
</g>
<g>
</g>
</svg>
