<?xml version="1.0" encoding="utf-8"?>
<!-- Generator: Adobe Illustrator 16.2.0, SVG Export Plug-In . SVG Version: 6.00 Build 0)  -->
<!DOCTYPE svg PUBLIC "-//W3C//DTD SVG 1.1//EN" "http://www.w3.org/Graphics/SVG/1.1/DTD/svg11.dtd">
<svg version="1.1" id="Capa_1" xmlns="http://www.w3.org/2000/svg" xmlns:xlink="http://www.w3.org/1999/xlink" x="0px" y="0px"
	 width="97.5px" height="96.5px" viewBox="0 0 97.5 96.5" enable-background="new 0 0 97.5 96.5" xml:space="preserve">
<circle fill="#FF7600" cx="49" cy="49" r="46"/>
<g>
	<path fill="#FFFFFF" d="M35.5,34.876v-5.5c0-0.761,0.615-1.376,1.375-1.376s1.375,0.615,1.375,1.376v5.5
		c0,0.76-0.615,1.375-1.375,1.375S35.5,35.636,35.5,34.876z M58.875,36.251c0.76,0,1.375-0.615,1.375-1.375v-5.5
		c0-0.761-0.615-1.376-1.375-1.376S57.5,28.615,57.5,29.376v5.5C57.5,35.636,58.115,36.251,58.875,36.251z M74,61.001
		c0,6.074-4.926,11-11,11s-11-4.926-11-11c0-6.075,4.926-11,11-11S74,54.926,74,61.001z M71.25,61.001c0-4.549-3.7-8.25-8.25-8.25
		c-4.549,0-8.25,3.701-8.25,8.25s3.701,8.25,8.25,8.25C67.55,69.251,71.25,65.55,71.25,61.001z M41,44.501h-5.5v5.5H41V44.501z
		 M35.5,58.251H41v-5.5h-5.5V58.251z M43.75,50.001h5.5v-5.5h-5.5V50.001z M43.75,58.251h5.5v-5.5h-5.5V58.251z M32.75,60.728
		V41.751H63v5.5h2.75V36.525c0-1.67-1.332-3.024-2.979-3.024h-1.146v1.375c0,1.514-1.232,2.75-2.75,2.75
		c-1.517,0-2.75-1.236-2.75-2.75v-1.375h-16.5v1.375c0,1.514-1.232,2.75-2.75,2.75s-2.75-1.236-2.75-2.75v-1.375h-1.146
		c-1.646,0-2.979,1.354-2.979,3.024v24.203c0,1.664,1.333,3.023,2.979,3.023H49.25v-2.75H32.979
		C32.855,61.001,32.75,60.872,32.75,60.728z M57.5,50.001v-5.5H52v5.5H57.5z M67.125,61.001H63v-4.126
		c0-0.759-0.615-1.374-1.375-1.374s-1.375,0.615-1.375,1.374v5.501c0,0.76,0.615,1.375,1.375,1.375h5.5
		c0.76,0,1.375-0.615,1.375-1.375S67.885,61.001,67.125,61.001z"/>
</g>
</svg>
