<?xml version="1.0" encoding="utf-8"?>
<!-- Generator: Adobe Illustrator 16.2.0, SVG Export Plug-In . SVG Version: 6.00 Build 0)  -->
<!DOCTYPE svg PUBLIC "-//W3C//DTD SVG 1.1//EN" "http://www.w3.org/Graphics/SVG/1.1/DTD/svg11.dtd">
<svg version="1.1" id="Capa_1" xmlns="http://www.w3.org/2000/svg" xmlns:xlink="http://www.w3.org/1999/xlink" x="0px" y="0px"
	 width="97.5px" height="96.5px" viewBox="0 0 97.5 96.5" enable-background="new 0 0 97.5 96.5" xml:space="preserve">
<circle fill="#FF7600" cx="49" cy="49" r="46"/>
<g>
	<g>
		<path fill="#FFFFFF" d="M44.516,54.139l7.118,2.158c-0.009,0.046-0.026,0.1-0.045,0.146c-0.19,0.517-0.58,0.808-1.215,0.907
			c-2.34,0.371-6.221,0.136-6.257,0.136c-0.599-0.036-1.115,0.417-1.152,1.016c-0.036,0.599,0.418,1.115,1.016,1.151
			c0.173,0.01,4.153,0.254,6.738-0.163c2.565-0.407,3.301-2.666,3.164-4.09c-0.045-0.444-0.345-0.815-0.771-0.942l-7.971-2.412
			c-3.936-1.188-8.252,1.006-8.434,1.097c-0.018,0.009-0.045,0.019-0.063,0.036l-7.935,4.797c-0.517,0.309-0.68,0.979-0.371,1.496
			c0.208,0.336,0.562,0.526,0.934,0.526c0.19,0,0.381-0.054,0.563-0.154l7.898-4.761C38.077,54.9,41.551,53.242,44.516,54.139z"/>
		<path fill="#FFFFFF" d="M71.684,52.316c-0.626-1.143-2.575-2.965-5.531-1.659c-2.793,1.242-8.696,4.081-8.76,4.108
			c-0.544,0.262-0.771,0.906-0.508,1.45s0.916,0.771,1.451,0.508c0.063-0.027,5.93-2.856,8.695-4.081
			c0.789-0.354,1.451-0.354,2.022,0c0.019,0.01,0.027,0.019,0.045,0.027L54.31,63.506c-1.053,0.771-2.385,1.089-3.664,0.89
			l-13.193-2.104c-0.309-0.045-0.626,0.037-0.871,0.236l-3.337,2.783c-0.462,0.381-0.525,1.07-0.136,1.533
			c0.218,0.254,0.525,0.39,0.834,0.39c0.245,0,0.49-0.082,0.698-0.254l2.956-2.467l12.714,2.031c1.85,0.3,3.781-0.172,5.296-1.278
			l15.777-11.553C71.811,53.387,71.946,52.797,71.684,52.316z"/>
		<path fill="#FFFFFF" d="M51.525,51.064c1.695,0,3.282-0.661,4.488-1.858c2.476-2.476,2.476-6.492,0-8.968
			c-1.196-1.197-2.793-1.859-4.488-1.859s-3.283,0.662-4.488,1.859c-2.476,2.476-2.476,6.492,0,8.968
			C48.242,50.403,49.83,51.064,51.525,51.064z M48.578,41.78c0.789-0.789,1.832-1.224,2.947-1.224s2.158,0.435,2.947,1.224
			c1.623,1.623,1.623,4.271,0,5.894c-0.789,0.789-1.832,1.225-2.947,1.225s-2.158-0.436-2.947-1.225
			C46.955,46.051,46.955,43.402,48.578,41.78z"/>
		<path fill="#FFFFFF" d="M58.97,38.669c1.324,0,2.566-0.517,3.501-1.451c1.932-1.931,1.932-5.069,0-7
			c-0.935-0.934-2.177-1.451-3.501-1.451c-1.323,0-2.565,0.517-3.5,1.451c-1.932,1.932-1.932,5.069,0,7
			C56.404,38.162,57.655,38.669,58.97,38.669z M57.012,31.76c0.525-0.526,1.224-0.816,1.968-0.816c0.743,0,1.441,0.29,1.968,0.816
			c1.079,1.079,1.079,2.847,0,3.926c-0.526,0.526-1.225,0.816-1.968,0.816c-0.744,0-1.442-0.29-1.968-0.816
			C55.933,34.598,55.933,32.838,57.012,31.76z"/>
	</g>
</g>
</svg>
