<?xml version="1.0" encoding="utf-8"?>
<!-- Generator: Adobe Illustrator 16.2.0, SVG Export Plug-In . SVG Version: 6.00 Build 0)  -->
<!DOCTYPE svg PUBLIC "-//W3C//DTD SVG 1.1//EN" "http://www.w3.org/Graphics/SVG/1.1/DTD/svg11.dtd">
<svg version="1.1" id="Capa_1" xmlns="http://www.w3.org/2000/svg" xmlns:xlink="http://www.w3.org/1999/xlink" x="0px" y="0px"
	 width="97.5px" height="96.5px" viewBox="0 0 97.5 96.5" enable-background="new 0 0 97.5 96.5" xml:space="preserve">
<circle fill="#FF7600" cx="49" cy="49.247" r="46"/>
<g>
	<g id="Layer_2_16_">
		<g>
			<path fill="#FFFFFF" d="M52.758,64.53c-0.307,0.076-0.619,0.144-0.93,0.201c-0.812,0.151-1.348,0.932-1.197,1.743
				c0.073,0.4,0.301,0.732,0.608,0.95c0.317,0.224,0.722,0.324,1.134,0.248c0.37-0.069,0.742-0.149,1.107-0.241
				c0.802-0.199,1.29-1.011,1.09-1.812C54.371,64.818,53.56,64.33,52.758,64.53z"/>
			<path fill="#FFFFFF" d="M63.816,44.485c0.105,0.316,0.305,0.573,0.558,0.752c0.375,0.264,0.865,0.353,1.332,0.197
				c0.784-0.26,1.209-1.105,0.95-1.889c-0.118-0.357-0.25-0.716-0.389-1.065c-0.308-0.767-1.177-1.14-1.944-0.833
				c-0.767,0.307-1.14,1.177-0.833,1.943C63.607,43.884,63.718,44.185,63.816,44.485z"/>
			<path fill="#FFFFFF" d="M57.617,62.395c-0.264,0.175-0.536,0.343-0.811,0.501c-0.715,0.413-0.96,1.327-0.548,2.043
				c0.112,0.194,0.262,0.354,0.434,0.475c0.461,0.325,1.088,0.373,1.609,0.073c0.326-0.188,0.65-0.389,0.964-0.596
				c0.689-0.455,0.879-1.384,0.424-2.072C59.234,62.129,58.307,61.939,57.617,62.395z"/>
			<path fill="#FFFFFF" d="M67.586,48.662c-0.032-0.825-0.728-1.468-1.554-1.436c-0.824,0.032-1.467,0.729-1.435,1.554
				c0.012,0.315,0.016,0.635,0.008,0.95c-0.012,0.518,0.242,0.979,0.635,1.257c0.235,0.164,0.52,0.265,0.828,0.271
				c0.825,0.019,1.509-0.637,1.527-1.462C67.604,49.42,67.601,49.039,67.586,48.662z"/>
			<path fill="#FFFFFF" d="M63.572,58.461c-0.661-0.497-1.598-0.362-2.094,0.299c-0.189,0.253-0.39,0.503-0.594,0.743
				c-0.535,0.629-0.46,1.573,0.169,2.108c0.035,0.03,0.072,0.059,0.109,0.084c0.625,0.441,1.493,0.34,1.999-0.253
				c0.244-0.287,0.482-0.586,0.709-0.888C64.367,59.894,64.232,58.957,63.572,58.461z"/>
			<path fill="#FFFFFF" d="M65.771,53.055c-0.788-0.247-1.627,0.192-1.874,0.979c-0.094,0.302-0.199,0.604-0.313,0.9
				c-0.248,0.652-0.01,1.37,0.535,1.754c0.101,0.07,0.21,0.13,0.33,0.176c0.771,0.294,1.636-0.093,1.93-0.865
				c0.135-0.352,0.259-0.712,0.371-1.069C66.997,54.142,66.559,53.302,65.771,53.055z"/>
			<path fill="#FFFFFF" d="M46.233,64.745c-1.337-0.24-2.619-0.649-3.835-1.219c-0.015-0.008-0.027-0.017-0.043-0.023
				c-0.286-0.135-0.572-0.279-0.85-0.431c-0.001-0.001-0.003-0.002-0.005-0.002c-0.509-0.28-1.005-0.591-1.487-0.93
				c-7.035-4.956-8.727-14.71-3.771-21.746c1.078-1.528,2.382-2.805,3.836-3.815c0.018-0.013,0.035-0.025,0.054-0.037
				c5.122-3.53,12.079-3.769,17.519-0.141l-1.168,1.688c-0.325,0.47-0.125,0.813,0.443,0.762l5.075-0.455
				c0.569-0.051,0.91-0.543,0.757-1.093l-1.363-4.91c-0.152-0.551-0.543-0.617-0.868-0.146l-1.171,1.691
				c-3.992-2.68-8.78-3.701-13.533-2.877c-0.479,0.082-0.95,0.184-1.416,0.302c-0.003,0.001-0.006,0.001-0.009,0.002
				c-0.019,0.004-0.036,0.01-0.054,0.015c-4.099,1.053-7.674,3.443-10.226,6.854c-0.021,0.025-0.044,0.05-0.063,0.078
				c-0.085,0.114-0.169,0.231-0.252,0.348c-0.135,0.191-0.268,0.389-0.395,0.585c-0.017,0.023-0.028,0.047-0.042,0.071
				c-2.105,3.263-3.121,7.034-2.947,10.875c0.001,0.013,0,0.025,0,0.039c0.017,0.375,0.047,0.755,0.087,1.13
				c0.003,0.023,0.008,0.047,0.012,0.071c0.042,0.376,0.095,0.753,0.16,1.131c0.667,3.849,2.482,7.313,5.204,10.008
				c0.006,0.007,0.013,0.014,0.019,0.02c0.003,0.003,0.005,0.004,0.007,0.007c0.731,0.721,1.526,1.388,2.383,1.99
				c2.24,1.579,4.735,2.623,7.415,3.104c0.813,0.146,1.59-0.395,1.735-1.208C47.587,65.668,47.047,64.891,46.233,64.745z"/>
			<path fill="#FFFFFF" d="M48.083,37.3c-0.669,0-1.211,0.542-1.211,1.21v12.055l11.025,5.699c0.177,0.092,0.367,0.135,0.554,0.135
				c0.438,0,0.861-0.238,1.076-0.654c0.307-0.594,0.074-1.323-0.52-1.63l-9.716-5.023V38.51C49.292,37.842,48.751,37.3,48.083,37.3z
				"/>
		</g>
	</g>
</g>
</svg>
