<?xml version="1.0" encoding="utf-8"?>
<!-- Generator: Adobe Illustrator 16.2.0, SVG Export Plug-In . SVG Version: 6.00 Build 0)  -->
<!DOCTYPE svg PUBLIC "-//W3C//DTD SVG 1.1//EN" "http://www.w3.org/Graphics/SVG/1.1/DTD/svg11.dtd">
<svg version="1.1" id="Capa_1" xmlns="http://www.w3.org/2000/svg" xmlns:xlink="http://www.w3.org/1999/xlink" x="0px" y="0px"
	 width="98.5px" height="99px" viewBox="0 -13.5 98.5 99" enable-background="new 0 -13.5 98.5 99" xml:space="preserve">
<circle fill="#FF7600" cx="50" cy="36.5" r="46"/>
<g>
	<circle fill="#FFFFFF" cx="49.439" cy="35.858" r="1.347"/>
	<path fill="#FFFFFF" d="M49.439,15.744c-11.135,0-20.195,9.061-20.195,20.195c0,11.135,9.061,20.195,20.195,20.195
		c11.135,0,20.195-9.06,20.195-20.195C69.634,24.804,60.574,15.744,49.439,15.744z M48.766,21.047c0-0.371,0.302-0.673,0.673-0.673
		s0.674,0.302,0.674,0.673v0.674c0,0.372-0.303,0.673-0.674,0.673s-0.673-0.301-0.673-0.673V21.047z M35.302,36.531h-0.673
		c-0.371,0-0.674-0.301-0.674-0.672c0-0.373,0.303-0.673,0.674-0.673h0.673c0.372,0,0.673,0.3,0.673,0.673
		C35.976,36.23,35.674,36.531,35.302,36.531z M39.919,46.329l-0.477,0.478c-0.13,0.13-0.303,0.197-0.475,0.197
		s-0.344-0.067-0.476-0.197c-0.264-0.264-0.264-0.689,0-0.952l0.476-0.477c0.263-0.265,0.688-0.265,0.952,0
		C40.182,45.641,40.182,46.066,39.919,46.329z M39.919,26.336c-0.131,0.131-0.303,0.198-0.477,0.198
		c-0.171,0-0.344-0.066-0.475-0.198l-0.476-0.476c-0.264-0.264-0.264-0.688,0-0.951c0.263-0.263,0.688-0.263,0.951,0l0.477,0.476
		C40.182,25.648,40.182,26.074,39.919,26.336z M50.113,50.668c0,0.372-0.303,0.672-0.674,0.672s-0.673-0.301-0.673-0.672v-0.674
		c0-0.371,0.302-0.674,0.673-0.674s0.674,0.303,0.674,0.674V50.668z M49.439,38.55c-1.25,0-2.296-0.86-2.597-2.02h-4.808
		c-0.372,0-0.673-0.301-0.673-0.672c0-0.373,0.301-0.673,0.673-0.673h4.808c0.246-0.942,0.982-1.68,1.924-1.924v-6.828
		c0-0.373,0.302-0.673,0.673-0.673s0.674,0.3,0.674,0.673v6.828c1.157,0.3,2.018,1.345,2.018,2.598
		C52.131,37.342,50.922,38.55,49.439,38.55z M60.387,46.807c-0.131,0.13-0.303,0.197-0.477,0.197c-0.172,0-0.344-0.067-0.476-0.197
		l-0.474-0.478c-0.264-0.263-0.264-0.688,0-0.951c0.261-0.265,0.687-0.265,0.95,0l0.477,0.477
		C60.651,46.117,60.651,46.543,60.387,46.807z M60.387,25.861l-0.477,0.476c-0.13,0.131-0.304,0.198-0.476,0.198
		s-0.344-0.066-0.474-0.198c-0.264-0.263-0.264-0.688,0-0.951l0.474-0.476c0.263-0.263,0.69-0.263,0.953,0
		C60.651,25.172,60.651,25.599,60.387,25.861z M64.249,36.531h-0.672c-0.373,0-0.674-0.301-0.674-0.672
		c0-0.373,0.301-0.673,0.674-0.673h0.672c0.373,0,0.673,0.3,0.673,0.673C64.922,36.23,64.622,36.531,64.249,36.531z"/>
</g>
</svg>
