<?xml version="1.0" encoding="utf-8"?>
<!-- Generator: Adobe Illustrator 16.2.0, SVG Export Plug-In . SVG Version: 6.00 Build 0)  -->
<!DOCTYPE svg PUBLIC "-//W3C//DTD SVG 1.1//EN" "http://www.w3.org/Graphics/SVG/1.1/DTD/svg11.dtd">
<svg version="1.1" id="Capa_1" xmlns="http://www.w3.org/2000/svg" xmlns:xlink="http://www.w3.org/1999/xlink" x="0px" y="0px"
	 width="98.195px" height="98.195px" viewBox="0 0 98.195 98.195" enable-background="new 0 0 98.195 98.195" xml:space="preserve">
<circle fill="#FF7600" cx="49" cy="49" r="46"/>
<g>
	<path fill="#FFFFFF" d="M57.773,28.575c0,0-3.229,3.132-6.72,4.395C25.195,42.323,36.1,60.549,36.456,60.609
		c0,0,1.45-2.525,3.409-3.965C52.293,47.506,54.82,36.989,54.82,36.989s-2.789,12.656-13.847,20.53
		c-2.442,1.738-4.096,6.019-4.796,10.296c0,0,1.731-0.7,2.476-0.889c0.291-1.894,0.897-3.708,1.923-5.328
		c15.454,1.84,20.516-10.613,21.177-14.955C63.314,36.388,57.773,28.575,57.773,28.575z"/>
</g>
</svg>
