<?xml version="1.0" encoding="utf-8"?>
<!-- Generator: Adobe Illustrator 16.2.0, SVG Export Plug-In . SVG Version: 6.00 Build 0)  -->
<!DOCTYPE svg PUBLIC "-//W3C//DTD SVG 1.1//EN" "http://www.w3.org/Graphics/SVG/1.1/DTD/svg11.dtd">
<svg version="1.1" id="Capa_1" xmlns="http://www.w3.org/2000/svg" xmlns:xlink="http://www.w3.org/1999/xlink" x="0px" y="0px"
	 width="97.5px" height="96.5px" viewBox="0 0 97.5 96.5" enable-background="new 0 0 97.5 96.5" xml:space="preserve">
<circle fill="#FF7600" cx="49" cy="49" r="46"/>
<path fill="#FFFFFF" d="M65.705,46.328L50.835,31.458c-1.014-1.014-2.658-1.014-3.671,0L32.295,46.328
	c-0.742,0.743-0.964,1.859-0.563,2.83c0.402,0.97,1.349,1.603,2.398,1.603h2.015v11.117c0,1.854,1.503,3.357,3.357,3.357h18.995
	c1.854,0,3.357-1.503,3.357-3.357V50.76h2.015c1.05,0,1.997-0.633,2.398-1.603C66.669,48.187,66.447,47.07,65.705,46.328z
	 M52.923,60.365h-7.846v-4.423c0-2.167,1.756-3.923,3.923-3.923s3.923,1.756,3.923,3.923V60.365z"/>
</svg>
