<?xml version="1.0" encoding="utf-8"?>
<!-- Generator: Adobe Illustrator 16.2.0, SVG Export Plug-In . SVG Version: 6.00 Build 0)  -->
<!DOCTYPE svg PUBLIC "-//W3C//DTD SVG 1.1//EN" "http://www.w3.org/Graphics/SVG/1.1/DTD/svg11.dtd">
<svg version="1.1" id="Layer_1" xmlns="http://www.w3.org/2000/svg" xmlns:xlink="http://www.w3.org/1999/xlink" x="0px" y="0px"
	 width="300px" height="300px" viewBox="0 0 300 300" enable-background="new 0 0 300 300" xml:space="preserve">
<g>
	<g>
		<path fill="#FC0B0B" d="M256.066,43.934C227.734,15.603,190.066,0,150,0C110.168,0,72.1,15.769,43.934,43.934
			C15.603,72.265,0,109.934,0,150c0,31.234,9.508,61.171,27.496,86.577c17.59,24.842,41.91,43.547,70.33,54.092
			c1.909,0.709,4.116,0.131,5.43-1.584c0.651-0.85,0.955-1.918,0.955-2.988v-85.569c0-2.616-2.121-4.737-4.736-4.737H60.001v-34.736
			h39.474c2.616,0,4.736-2.121,4.736-4.736V150c0-41.214,39.105-77.368,83.684-77.368h20.527v34.737h-20.527
			c-13.367,0-25.521,3.848-34.226,10.833c-9.63,7.729-14.721,18.725-14.721,31.798v6.316c0,2.616,2.121,4.737,4.737,4.737h18.675
			c2.616,0,4.736-2.121,4.736-4.737s-2.121-4.737-4.736-4.737h-13.938V150c0-24.473,21.264-33.157,39.473-33.157h25.264
			c2.615,0,4.736-2.121,4.736-4.737V67.895c0-2.616-2.121-4.736-4.736-4.736h-25.264c-23.154,0-46.625,9.211-64.392,25.271
			c-18.55,16.769-28.767,38.635-28.767,61.572v1.58H55.263c-2.616,0-4.737,2.121-4.737,4.736v44.211
			c0,2.615,2.121,4.736,4.737,4.736h39.473v73.973C43.466,257.271,9.474,206.184,9.474,150c0-77.486,63.04-140.526,140.525-140.526
			C227.4,9.474,290.525,72.599,290.525,150c0,77.486-63.039,140.525-140.526,140.525c-0.519,0-1.044-0.003-1.579-0.01v-85.253
			h64.738c2.615,0,4.736-2.121,4.736-4.736v-44.211c0-2.616-2.121-4.737-4.736-4.737h-27.725c-2.617,0-4.737,2.121-4.737,4.737
			s2.121,4.737,4.737,4.737h22.987v34.736h-64.736c-2.616,0-4.737,2.121-4.737,4.736v94.592c0,2.534,1.997,4.624,4.529,4.732
			c2.347,0.101,4.481,0.15,6.524,0.15c40.065,0,77.734-15.604,106.065-43.935C284.232,227.899,300,189.831,300,149.999
			C300,109.934,284.396,72.265,256.066,43.934z"/>
	</g>
</g>
</svg>
