<?xml version="1.0" encoding="utf-8"?>
<!-- Generator: Adobe Illustrator 16.2.0, SVG Export Plug-In . SVG Version: 6.00 Build 0)  -->
<!DOCTYPE svg PUBLIC "-//W3C//DTD SVG 1.1//EN" "http://www.w3.org/Graphics/SVG/1.1/DTD/svg11.dtd">
<svg version="1.1" id="Capa_1" xmlns="http://www.w3.org/2000/svg" xmlns:xlink="http://www.w3.org/1999/xlink" x="0px" y="0px"
	 width="98.5px" height="99px" viewBox="0 0 98.5 99" enable-background="new 0 0 98.5 99" xml:space="preserve">
<circle fill="#FF7600" cx="50" cy="50" r="46"/>
<g>
	<path fill="#FFFFFF" d="M48.259,41.476c4.119,0,7.47-3.351,7.47-7.47s-3.351-7.47-7.47-7.47s-7.471,3.351-7.471,7.47
		S44.14,41.476,48.259,41.476L48.259,41.476z"/>
	<path fill="#FFFFFF" d="M65.847,54.566c-4.657,0-8.447,3.79-8.447,8.448s3.79,8.447,8.447,8.447c4.658,0,8.448-3.789,8.448-8.447
		S70.505,54.566,65.847,54.566z M70.993,61.26l-5.521,5.521c-0.278,0.277-0.642,0.417-1.006,0.417s-0.728-0.14-1.005-0.417
		l-2.761-2.76c-0.556-0.556-0.556-1.456,0-2.012c0.556-0.555,1.456-0.555,2.011,0l1.755,1.755l4.515-4.515
		c0.556-0.555,1.456-0.555,2.012,0C71.548,59.805,71.548,60.705,70.993,61.26z"/>
	<path fill="#FFFFFF" d="M62.811,52.663v-1.318c0-2.843-1.826-5.363-4.528-6.249l-0.012-0.004l-3.952-0.654
		c-0.336-0.104-0.695,0.075-0.816,0.406l-4.483,12.301c-0.258,0.709-1.262,0.709-1.521,0l-4.483-12.301
		c-0.098-0.268-0.351-0.436-0.621-0.436c-0.064,0-4.146,0.683-4.146,0.683c-2.724,0.908-4.544,3.432-4.544,6.288v10.235
		c0,1.534,1.244,2.777,2.777,2.777h18.668c-0.058-0.451-0.091-0.91-0.091-1.377C55.058,58.119,58.336,53.978,62.811,52.663
		L62.811,52.663z"/>
	<path fill="#FFFFFF" d="M49.913,43.689c-0.175-0.191-0.431-0.287-0.689-0.287h-1.93c-0.259,0-0.515,0.096-0.689,0.287
		c-0.271,0.295-0.311,0.721-0.118,1.055l1.031,1.555l-0.482,4.074l0.951,2.53c0.093,0.254,0.452,0.254,0.545,0l0.951-2.53
		l-0.483-4.074l1.032-1.555C50.224,44.41,50.184,43.984,49.913,43.689L49.913,43.689z"/>
</g>
</svg>
