<?xml version="1.0" encoding="utf-8"?>
<!-- Generator: Adobe Illustrator 16.2.0, SVG Export Plug-In . SVG Version: 6.00 Build 0)  -->
<!DOCTYPE svg PUBLIC "-//W3C//DTD SVG 1.1//EN" "http://www.w3.org/Graphics/SVG/1.1/DTD/svg11.dtd">
<svg version="1.1" id="Capa_1" xmlns="http://www.w3.org/2000/svg" xmlns:xlink="http://www.w3.org/1999/xlink" x="0px" y="0px"
	 width="98.5px" height="99px" viewBox="0 0 98.5 99" enable-background="new 0 0 98.5 99" xml:space="preserve">
<circle fill="#FF7600" cx="50" cy="50" r="46"/>
<g>
	<path fill="#FFFFFF" d="M72.122,51.705c-1.368-1.712-3.116-2.822-5.246-3.33c0.673-1.015,1.008-2.145,1.008-3.391
		c0-1.736-0.614-3.218-1.843-4.447c-1.229-1.228-2.711-1.842-4.447-1.842c-1.556,0-2.915,0.508-4.078,1.523
		c-0.966-2.359-2.51-4.25-4.631-5.676c-2.121-1.425-4.46-2.138-7.016-2.138c-3.472,0-6.437,1.229-8.894,3.687
		c-2.457,2.455-3.686,5.421-3.686,8.894c0,0.213,0.017,0.565,0.049,1.057c-1.933,0.9-3.472,2.252-4.619,4.054
		C27.573,51.898,27,53.863,27,55.993c0,3.03,1.077,5.621,3.231,7.775S34.977,67,38.007,67H64.74c2.604,0,4.827-0.922,6.67-2.765
		c1.843-1.842,2.765-4.065,2.765-6.671C74.175,55.37,73.49,53.417,72.122,51.705z M58.204,52.65l-8.625,8.625
		c-0.147,0.147-0.335,0.221-0.565,0.221c-0.229,0-0.417-0.073-0.565-0.221l-8.649-8.648c-0.147-0.148-0.221-0.336-0.221-0.565
		c0-0.213,0.078-0.397,0.233-0.553c0.156-0.155,0.34-0.233,0.553-0.233h5.504v-8.648c0-0.213,0.078-0.397,0.233-0.553
		c0.156-0.156,0.34-0.233,0.553-0.233h4.718c0.213,0,0.396,0.077,0.553,0.233c0.155,0.155,0.233,0.34,0.233,0.553v8.648h5.504
		c0.229,0,0.417,0.073,0.564,0.221s0.221,0.336,0.221,0.564C58.449,52.259,58.367,52.455,58.204,52.65z"/>
</g>
</svg>
